<svg xmlns="http://www.w3.org/2000/svg" width="760" height="320" font-family="Helvetica, Arial, sans-serif" font-size="12">
<rect width="760" height="320" fill="white"/>
<text x="70" y="22" font-size="14" font-weight="bold">days to recover P₋₁ (censored at 60) after a shock, by pre-shock Φ tercile</text>
<rect x="80.0" y="80.4" width="54.2" height="169.6" fill="#7dd39a"/>
<text x="107.1" y="76.4" text-anchor="middle">31.4</text>
<text x="107.1" y="264" text-anchor="middle" font-size="10">low Φ (n=49)</text>
<rect x="147.8" y="89.4" width="54.2" height="160.6" fill="#e5b85a"/>
<text x="174.9" y="85.4" text-anchor="middle">29.7</text>
<text x="174.9" y="264" text-anchor="middle" font-size="10">mid Φ (n=49)</text>
<rect x="215.6" y="103.0" width="54.2" height="147.0" fill="#e0776f"/>
<text x="242.7" y="99.0" text-anchor="middle">27.2</text>
<text x="242.7" y="264" text-anchor="middle" font-size="10">high Φ (n=49)</text>
<text x="181.7" y="282" text-anchor="middle">shocks</text>
<rect x="303.3" y="95.7" width="54.2" height="154.3" fill="#7dd39a"/>
<text x="330.4" y="91.7" text-anchor="middle">28.6</text>
<text x="330.4" y="264" text-anchor="middle" font-size="10">low Φ (n=29)</text>
<rect x="371.1" y="67.4" width="54.2" height="182.6" fill="#e5b85a"/>
<text x="398.2" y="63.4" text-anchor="middle">33.8</text>
<text x="398.2" y="264" text-anchor="middle" font-size="10">mid Φ (n=39)</text>
<rect x="438.9" y="114.9" width="54.2" height="135.1" fill="#e0776f"/>
<text x="466.0" y="110.9" text-anchor="middle">25.0</text>
<text x="466.0" y="264" text-anchor="middle" font-size="10">high Φ (n=28)</text>
<text x="405.0" y="282" text-anchor="middle">shocks, ≥3 components</text>
<rect x="526.7" y="214.8" width="54.2" height="35.2" fill="#7dd39a"/>
<text x="553.8" y="210.8" text-anchor="middle">6.5</text>
<text x="553.8" y="264" text-anchor="middle" font-size="10">low Φ (n=245)</text>
<rect x="594.4" y="217.2" width="54.2" height="32.8" fill="#e5b85a"/>
<text x="621.6" y="213.2" text-anchor="middle">6.1</text>
<text x="621.6" y="264" text-anchor="middle" font-size="10">mid Φ (n=245)</text>
<rect x="662.2" y="202.6" width="54.2" height="47.4" fill="#e0776f"/>
<text x="689.3" y="198.6" text-anchor="middle">8.8</text>
<text x="689.3" y="264" text-anchor="middle" font-size="10">high Φ (n=245)</text>
<text x="628.3" y="282" text-anchor="middle">placebo</text>
<text x="70" y="312" fill="#555">bars: |mean| of days to recover P₋₁ (censored at 60) by Φ tercile (edges from the shock sample)</text></svg>