<svg xmlns="http://www.w3.org/2000/svg" width="760" height="320" font-family="Helvetica, Arial, sans-serif" font-size="12">
<rect width="760" height="320" fill="white"/>
<text x="70" y="22" font-size="14" font-weight="bold">max drawdown, 5 days after a shock, by pre-shock Φ tercile</text>
<rect x="80.0" y="67.4" width="54.2" height="182.6" fill="#7dd39a"/>
<text x="107.1" y="63.4" text-anchor="middle">11.5%</text>
<text x="107.1" y="264" text-anchor="middle" font-size="10">low Φ (n=49)</text>
<rect x="147.8" y="80.1" width="54.2" height="169.9" fill="#e5b85a"/>
<text x="174.9" y="76.1" text-anchor="middle">10.7%</text>
<text x="174.9" y="264" text-anchor="middle" font-size="10">mid Φ (n=49)</text>
<rect x="215.6" y="95.4" width="54.2" height="154.6" fill="#e0776f"/>
<text x="242.7" y="91.4" text-anchor="middle">9.7%</text>
<text x="242.7" y="264" text-anchor="middle" font-size="10">high Φ (n=49)</text>
<text x="181.7" y="282" text-anchor="middle">shocks</text>
<rect x="303.3" y="84.3" width="54.2" height="165.7" fill="#7dd39a"/>
<text x="330.4" y="80.3" text-anchor="middle">10.4%</text>
<text x="330.4" y="264" text-anchor="middle" font-size="10">low Φ (n=29)</text>
<rect x="371.1" y="90.0" width="54.2" height="160.0" fill="#e5b85a"/>
<text x="398.2" y="86.0" text-anchor="middle">10.1%</text>
<text x="398.2" y="264" text-anchor="middle" font-size="10">mid Φ (n=39)</text>
<rect x="438.9" y="110.7" width="54.2" height="139.3" fill="#e0776f"/>
<text x="466.0" y="106.7" text-anchor="middle">8.8%</text>
<text x="466.0" y="264" text-anchor="middle" font-size="10">high Φ (n=28)</text>
<text x="405.0" y="282" text-anchor="middle">shocks, ≥3 components</text>
<rect x="526.7" y="214.4" width="54.2" height="35.6" fill="#7dd39a"/>
<text x="553.8" y="210.4" text-anchor="middle">2.2%</text>
<text x="553.8" y="264" text-anchor="middle" font-size="10">low Φ (n=245)</text>
<rect x="594.4" y="211.2" width="54.2" height="38.8" fill="#e5b85a"/>
<text x="621.6" y="207.2" text-anchor="middle">2.4%</text>
<text x="621.6" y="264" text-anchor="middle" font-size="10">mid Φ (n=245)</text>
<rect x="662.2" y="215.3" width="54.2" height="34.7" fill="#e0776f"/>
<text x="689.3" y="211.3" text-anchor="middle">2.2%</text>
<text x="689.3" y="264" text-anchor="middle" font-size="10">high Φ (n=245)</text>
<text x="628.3" y="282" text-anchor="middle">placebo</text>
<text x="70" y="312" fill="#555">bars: |mean| of max drawdown, 5 days by Φ tercile (edges from the shock sample)</text></svg>