<svg xmlns="http://www.w3.org/2000/svg" width="720" height="320" font-family="Helvetica, Arial, sans-serif" font-size="12">
<rect width="720" height="320" fill="white"/>
<text x="60" y="22" font-size="14" font-weight="bold">Hit rate by unlock size as a share of float</text>
<line x1="60" x2="700" y1="250.0" y2="250.0" stroke="#ddd"/><text x="54" y="254.0" text-anchor="end" fill="#555">0%</text>
<line x1="60" x2="700" y1="197.5" y2="197.5" stroke="#ddd"/><text x="54" y="201.5" text-anchor="end" fill="#555">25%</text>
<line x1="60" x2="700" y1="145.0" y2="145.0" stroke="#ddd"/><text x="54" y="149.0" text-anchor="end" fill="#555">50%</text>
<line x1="60" x2="700" y1="92.5" y2="92.5" stroke="#ddd"/><text x="54" y="96.5" text-anchor="end" fill="#555">75%</text>
<line x1="60" x2="700" y1="40.0" y2="40.0" stroke="#ddd"/><text x="54" y="44.0" text-anchor="end" fill="#555">100%</text>
<line x1="60" x2="700" y1="131.9" y2="131.9" stroke="#c0392b" stroke-dasharray="6,4"/><text x="698" y="127.9" text-anchor="end" fill="#c0392b">base rate 56%</text>
<rect x="79.2" y="126.9" width="89.6" height="123.1" fill="#2c6fb0"/>
<line x1="124.0" x2="124.0" y1="124.6" y2="129.1" stroke="#222"/>
<text x="124.0" y="122.9" text-anchor="middle">59%</text>
<text x="124.0" y="266" text-anchor="middle">< 0.5 %</text>
<rect x="207.2" y="128.8" width="89.6" height="121.2" fill="#2c6fb0"/>
<line x1="252.0" x2="252.0" y1="114.5" y2="143.2" stroke="#222"/>
<text x="252.0" y="124.8" text-anchor="middle">58%</text>
<text x="252.0" y="266" text-anchor="middle">0.5–1 %</text>
<rect x="335.2" y="113.6" width="89.6" height="136.4" fill="#2c6fb0"/>
<line x1="380.0" x2="380.0" y1="105.6" y2="121.7" stroke="#222"/>
<text x="380.0" y="109.6" text-anchor="middle">65%</text>
<text x="380.0" y="266" text-anchor="middle">1–2 %</text>
<rect x="463.2" y="118.1" width="89.6" height="131.9" fill="#2c6fb0"/>
<line x1="508.0" x2="508.0" y1="110.9" y2="125.3" stroke="#222"/>
<text x="508.0" y="114.1" text-anchor="middle">63%</text>
<text x="508.0" y="266" text-anchor="middle">2–5 %</text>
<rect x="591.2" y="116.0" width="89.6" height="134.0" fill="#2c6fb0"/>
<line x1="636.0" x2="636.0" y1="105.6" y2="126.4" stroke="#222"/>
<text x="636.0" y="112.0" text-anchor="middle">64%</text>
<text x="636.0" y="266" text-anchor="middle">> 5 %</text>
<text x="60" y="312" fill="#555">hit rate; whiskers ± one standard error; n per group in the table</text></svg>